# xmcd CD database file
#
# Track frame offsets:
#	150
#	17608
#	33391
#	48126
#	63308
#	83678
#	101614
#	116751
#	138231
#	163031
#	185441
#	206781
#	226263
#	242809
#	260779
#	277591
#	296899
#	321286
#
# Disc length: 4694 seconds
#
# Revision: 2
# Processed by: cddbd v1.5.2PL0 Copyright (c) Steve Scherf et al.
# Submitted via: CDex 1.97
#
DISCID=fd125412
DTITLE=Various Artist - Now That's What I Call Power Ballads CD3 of 3
DYEAR=2015
DGENRE=Power Ballad
TTITLE0=Survivor - Eye Of The Tiger
TTITLE1=Boston - More Than A Feeling
TTITLE2=Rainbow - Since You Been Gone
TTITLE3=Patti Smith Group - Because The Night
TTITLE4=Alice Cooper - Poison
TTITLE5=Europe - The Final Countdown
TTITLE6=REO Speedwagon - Keep On Loving You
TTITLE7=Whitesnake - Is This Love
TTITLE8=Tina Turner - The Best
TTITLE9=Toto - Africa
TTITLE10=Richard Marx - Hazard
TTITLE11=Poison - Every Rose Has It's Thorn
TTITLE12=Extreme - More Than Words
TTITLE13=Crowded House - Don't Dream It's Over
TTITLE14=The Scorpions - Wind Of Change
TTITLE15=Jeff Buckley - Hallelujah
TTITLE16=Mike and The Mechanics - The Living Years
TTITLE17=Genesis - Mama
EXTD=YEAR: 2015
EXTT0=
EXTT1=
EXTT2=
EXTT3=
EXTT4=
EXTT5=
EXTT6=
EXTT7=
EXTT8=
EXTT9=
EXTT10=
EXTT11=
EXTT12=
EXTT13=
EXTT14=
EXTT15=
EXTT16=
EXTT17=
PLAYORDER=
